<svg width="180" height="25" viewBox="0 0 180 25" fill="none" xmlns="http://www.w3.org/2000/svg">
<path d="M8.34375 13.8594C5.77083 13.1198 3.89583 12.2135 2.71875 11.1406C1.55208 10.0573 0.96875 8.72396 0.96875 7.14062C0.96875 5.34896 1.68229 3.86979 3.10938 2.70312C4.54688 1.52604 6.41146 0.9375 8.70312 0.9375C10.2656 0.9375 11.6562 1.23958 12.875 1.84375C14.1042 2.44792 15.0521 3.28125 15.7188 4.34375C16.3958 5.40625 16.7344 6.56771 16.7344 7.82812H13.7188C13.7188 6.45312 13.2812 5.375 12.4062 4.59375C11.5312 3.80208 10.2969 3.40625 8.70312 3.40625C7.22396 3.40625 6.06771 3.73438 5.23438 4.39062C4.41146 5.03646 4 5.9375 4 7.09375C4 8.02083 4.39062 8.80729 5.17188 9.45312C5.96354 10.0885 7.30208 10.6719 9.1875 11.2031C11.0833 11.7344 12.5625 12.3229 13.625 12.9688C14.6979 13.6042 15.4896 14.349 16 15.2031C16.5208 16.0573 16.7812 17.0625 16.7812 18.2188C16.7812 20.0625 16.0625 21.5417 14.625 22.6562C13.1875 23.7604 11.2656 24.3125 8.85938 24.3125C7.29688 24.3125 5.83854 24.0156 4.48438 23.4219C3.13021 22.8177 2.08333 21.9948 1.34375 20.9531C0.614583 19.9115 0.25 18.7292 0.25 17.4062H3.26562C3.26562 18.7812 3.77083 19.8698 4.78125 20.6719C5.80208 21.4635 7.16146 21.8594 8.85938 21.8594C10.4427 21.8594 11.6562 21.5365 12.5 20.8906C13.3438 20.2448 13.7656 19.3646 13.7656 18.25C13.7656 17.1354 13.375 16.276 12.5938 15.6719C11.8125 15.0573 10.3958 14.4531 8.34375 13.8594ZM36.6562 1.25V16.7188C36.6458 18.8646 35.9688 20.6198 34.625 21.9844C33.2917 23.349 31.4792 24.1146 29.1875 24.2812L28.3906 24.3125C25.901 24.3125 23.9167 23.6406 22.4375 22.2969C20.9583 20.9531 20.2083 19.1042 20.1875 16.75V1.25H23.1562V16.6562C23.1562 18.3021 23.6094 19.5833 24.5156 20.5C25.4219 21.4062 26.7135 21.8594 28.3906 21.8594C30.0885 21.8594 31.3854 21.4062 32.2812 20.5C33.1875 19.5938 33.6406 18.3177 33.6406 16.6719V1.25H36.6562ZM44.3906 15.0938V24H41.3906V1.25H49.7812C52.2708 1.25 54.2188 1.88542 55.625 3.15625C57.0417 4.42708 57.75 6.10938 57.75 8.20312C57.75 10.4115 57.0573 12.1146 55.6719 13.3125C54.2969 14.5 52.3229 15.0938 49.75 15.0938H44.3906ZM44.3906 12.6406H49.7812C51.3854 12.6406 52.6146 12.2656 53.4688 11.5156C54.3229 10.7552 54.75 9.66146 54.75 8.23438C54.75 6.88021 54.3229 5.79688 53.4688 4.98438C52.6146 4.17188 51.4427 3.75 49.9531 3.71875H44.3906V12.6406ZM74.4375 13.4844H64.5781V21.5469H76.0312V24H61.5781V1.25H75.875V3.71875H64.5781V11.0312H74.4375V13.4844ZM88.1094 14.7969H82.7656V24H79.75V1.25H87.2812C89.8438 1.25 91.8125 1.83333 93.1875 3C94.5729 4.16667 95.2656 5.86458 95.2656 8.09375C95.2656 9.51042 94.8802 10.7448 94.1094 11.7969C93.349 12.849 92.2865 13.6354 90.9219 14.1562L96.2656 23.8125V24H93.0469L88.1094 14.7969ZM82.7656 12.3438H87.375C88.8646 12.3438 90.0469 11.9583 90.9219 11.1875C91.8073 10.4167 92.25 9.38542 92.25 8.09375C92.25 6.6875 91.8281 5.60938 90.9844 4.85938C90.151 4.10938 88.9427 3.72917 87.3594 3.71875H82.7656V12.3438ZM106.188 13.8594C103.615 13.1198 101.74 12.2135 100.562 11.1406C99.3958 10.0573 98.8125 8.72396 98.8125 7.14062C98.8125 5.34896 99.526 3.86979 100.953 2.70312C102.391 1.52604 104.255 0.9375 106.547 0.9375C108.109 0.9375 109.5 1.23958 110.719 1.84375C111.948 2.44792 112.896 3.28125 113.562 4.34375C114.24 5.40625 114.578 6.56771 114.578 7.82812H111.562C111.562 6.45312 111.125 5.375 110.25 4.59375C109.375 3.80208 108.141 3.40625 106.547 3.40625C105.068 3.40625 103.911 3.73438 103.078 4.39062C102.255 5.03646 101.844 5.9375 101.844 7.09375C101.844 8.02083 102.234 8.80729 103.016 9.45312C103.807 10.0885 105.146 10.6719 107.031 11.2031C108.927 11.7344 110.406 12.3229 111.469 12.9688C112.542 13.6042 113.333 14.349 113.844 15.2031C114.365 16.0573 114.625 17.0625 114.625 18.2188C114.625 20.0625 113.906 21.5417 112.469 22.6562C111.031 23.7604 109.109 24.3125 106.703 24.3125C105.141 24.3125 103.682 24.0156 102.328 23.4219C100.974 22.8177 99.9271 21.9948 99.1875 20.9531C98.4583 19.9115 98.0938 18.7292 98.0938 17.4062H101.109C101.109 18.7812 101.615 19.8698 102.625 20.6719C103.646 21.4635 105.005 21.8594 106.703 21.8594C108.286 21.8594 109.5 21.5365 110.344 20.8906C111.188 20.2448 111.609 19.3646 111.609 18.25C111.609 17.1354 111.219 16.276 110.438 15.6719C109.656 15.0573 108.24 14.4531 106.188 13.8594ZM135.969 24H132.953V13.4844H121.484V24H118.484V1.25H121.484V11.0312H132.953V1.25H135.969V24ZM158.797 13.3594C158.797 15.5885 158.422 17.5365 157.672 19.2031C156.922 20.8594 155.859 22.125 154.484 23C153.109 23.875 151.505 24.3125 149.672 24.3125C147.88 24.3125 146.292 23.875 144.906 23C143.521 22.1146 142.443 20.8594 141.672 19.2344C140.911 17.599 140.521 15.7083 140.5 13.5625V11.9219C140.5 9.73438 140.88 7.80208 141.641 6.125C142.401 4.44792 143.474 3.16667 144.859 2.28125C146.255 1.38542 147.849 0.9375 149.641 0.9375C151.464 0.9375 153.068 1.38021 154.453 2.26562C155.849 3.14062 156.922 4.41667 157.672 6.09375C158.422 7.76042 158.797 9.70312 158.797 11.9219V13.3594ZM155.812 11.8906C155.812 9.19271 155.271 7.125 154.188 5.6875C153.104 4.23958 151.589 3.51562 149.641 3.51562C147.745 3.51562 146.25 4.23958 145.156 5.6875C144.073 7.125 143.516 9.125 143.484 11.6875V13.3594C143.484 15.974 144.031 18.0312 145.125 19.5312C146.229 21.0208 147.745 21.7656 149.672 21.7656C151.609 21.7656 153.109 21.0625 154.172 19.6562C155.234 18.2396 155.781 16.2135 155.812 13.5781V11.8906ZM166.297 15.0938V24H163.297V1.25H171.688C174.177 1.25 176.125 1.88542 177.531 3.15625C178.948 4.42708 179.656 6.10938 179.656 8.20312C179.656 10.4115 178.964 12.1146 177.578 13.3125C176.203 14.5 174.229 15.0938 171.656 15.0938H166.297ZM166.297 12.6406H171.688C173.292 12.6406 174.521 12.2656 175.375 11.5156C176.229 10.7552 176.656 9.66146 176.656 8.23438C176.656 6.88021 176.229 5.79688 175.375 4.98438C174.521 4.17188 173.349 3.75 171.859 3.71875H166.297V12.6406Z" fill="black"/>
</svg>
